<svg xmlns="http://www.w3.org/2000/svg" xmlns:xlink="http://www.w3.org/1999/xlink" width="58.848" height="60" viewBox="0 0 58.848 60">
  <defs>
    <clipPath id="clip-path">
      <rect id="Rectángulo_1562" data-name="Rectángulo 1562" width="58.848" height="60" fill="none"/>
    </clipPath>
  </defs>
  <g id="Grupo_2521" data-name="Grupo 2521" transform="translate(-915 -494)">
    <g id="Grupo_2520" data-name="Grupo 2520" transform="translate(915 494)">
      <g id="Grupo_2519" data-name="Grupo 2519" transform="translate(0 0)">
        <g id="Grupo_2518" data-name="Grupo 2518" clip-path="url(#clip-path)">
          <path id="Trazado_4541" data-name="Trazado 4541" d="M51.688,86.768H7.876a6.51,6.51,0,0,1-6.334-4.96l-.429-1.739a3.243,3.243,0,0,1,3.148-4.02H55.3a3.242,3.242,0,0,1,3.148,4.02l-.429,1.739a6.51,6.51,0,0,1-6.334,4.96M4.261,77.758a1.534,1.534,0,0,0-1.489,1.9L3.2,81.4a4.8,4.8,0,0,0,4.675,3.661H51.688A4.8,4.8,0,0,0,56.363,81.4l.429-1.739a1.534,1.534,0,0,0-1.489-1.9Z" transform="translate(-0.358 -26.769)" fill="#fff"/>
          <path id="Trazado_4542" data-name="Trazado 4542" d="M53.741,30.649H5.107a5.078,5.078,0,0,1-3.9-1.817A5.167,5.167,0,0,1,.079,24.606a29.8,29.8,0,0,1,58.69,0,5.167,5.167,0,0,1-1.128,4.226,5.077,5.077,0,0,1-3.9,1.817M29.424,1.709A28.024,28.024,0,0,0,1.763,24.9a3.457,3.457,0,0,0,.753,2.831A3.377,3.377,0,0,0,5.107,28.94H53.741a3.377,3.377,0,0,0,2.591-1.207,3.457,3.457,0,0,0,.753-2.831A28.023,28.023,0,0,0,29.424,1.709" transform="translate(0 0)" fill="#fff"/>
          <path id="Trazado_4543" data-name="Trazado 4543" d="M27.5,18.577c0,.767-.927,1.388-2.07,1.388s-2.07-.621-2.07-1.388.927-1.388,2.07-1.388,2.07.621,2.07,1.388" transform="translate(-8.222 -6.05)" fill="#fff"/>
          <path id="Trazado_4544" data-name="Trazado 4544" d="M37.716,11.449c0,.767-.927,1.388-2.07,1.388s-2.07-.621-2.07-1.388.927-1.388,2.07-1.388,2.07.621,2.07,1.388" transform="translate(-11.818 -3.541)" fill="#fff"/>
          <path id="Trazado_4545" data-name="Trazado 4545" d="M37.716,23.7c0,.767-.927,1.388-2.07,1.388s-2.07-.621-2.07-1.388.927-1.388,2.07-1.388,2.07.621,2.07,1.388" transform="translate(-11.818 -7.855)" fill="#fff"/>
          <path id="Trazado_4546" data-name="Trazado 4546" d="M56.395,11.449c0,.767-.927,1.388-2.07,1.388s-2.07-.621-2.07-1.388.927-1.388,2.07-1.388,2.07.621,2.07,1.388" transform="translate(-18.393 -3.541)" fill="#fff"/>
          <path id="Trazado_4547" data-name="Trazado 4547" d="M56.395,23.7c0,.767-.927,1.388-2.07,1.388s-2.07-.621-2.07-1.388.927-1.388,2.07-1.388,2.07.621,2.07,1.388" transform="translate(-18.393 -7.855)" fill="#fff"/>
          <path id="Trazado_4548" data-name="Trazado 4548" d="M45.58,17.207c0,.767-.927,1.388-2.07,1.388s-2.07-.621-2.07-1.388.927-1.388,2.07-1.388,2.07.621,2.07,1.388" transform="translate(-14.586 -5.568)" fill="#fff"/>
          <path id="Trazado_4549" data-name="Trazado 4549" d="M65.383,17.207c0,.767-.927,1.388-2.07,1.388s-2.07-.621-2.07-1.388.927-1.388,2.07-1.388,2.07.621,2.07,1.388" transform="translate(-21.557 -5.568)" fill="#fff"/>
        </g>
      </g>
      <text id="BURG" transform="translate(4.376 42.621)" fill="#fff" font-size="10" font-family="Montserrat-Black, Montserrat" font-weight="800"><tspan x="0" y="0" letter-spacing="0.199em">BU</tspan><tspan y="0" letter-spacing="0.2em">R</tspan><tspan y="0">G</tspan></text>
      <text id="er" transform="translate(43.026 42.623)" fill="#fff" font-size="10" font-family="Montserrat-Regular, Montserrat"><tspan x="0" y="0" letter-spacing="0.2em">e</tspan><tspan y="0">r</tspan></text>
    </g>
  </g>
</svg>
